<svg width="300" height="300" viewBox="0 0 300 300" fill="none" xmlns="http://www.w3.org/2000/svg">
<path d="M238.6 201.8H212.7V227.7H238.6V201.8Z" fill="white"/>
<path d="M261.1 152.2C250.7 146.5 238.7 143.2 226 143.2C185.7 143.2 153 175.9 153 216.2C153 225.9 154.9 235.2 158.4 243.8C169.3 270.5 195.5 289.3 226.1 289.3C266.4 289.3 299.1 256.6 299.1 216.3C299 188.6 283.7 164.6 261.1 152.2ZM271.2 227.6H238.6V247.3C238.6 254.5 232.8 260.3 225.6 260.3H212.7V227.7H193C185.8 227.7 180 221.9 180 214.7V201.8H212.6V182.1C212.6 174.9 218.4 169.1 225.6 169.1H238.5V201.7H258.2C265.4 201.7 271.2 207.5 271.2 214.7V227.6Z" fill="white"/>
<path d="M241.9 36.5H221.9V23.5C221.9 16.4 216.2 10.7 209.1 10.7H191.7C184.6 10.7 178.9 16.4 178.9 23.5V36.5H152.6V23.5C152.6 16.4 146.9 10.7 139.8 10.7H122.4C115.3 10.7 109.6 16.4 109.6 23.5V36.5H83.2V23.5C83.2 16.4 77.5 10.7 70.4 10.7H53C45.9 10.7 40.2 16.4 40.2 23.5V36.5H20.2C9.6 36.5 1 45.1 1 55.7V224.5C1 235.1 9.6 243.7 20.2 243.7H148C144.9 234.9 143.3 225.6 143.3 216.1C143.3 204.9 145.5 194.1 149.8 183.9C154 174.1 159.9 165.2 167.5 157.6C175.1 150 183.9 144.1 193.8 139.9C204 135.6 214.8 133.4 226 133.4C237.2 133.4 248 135.6 258.2 139.9C259.2 140.3 260.2 140.8 261.2 141.2V55.7C261.1 45.1 252.5 36.5 241.9 36.5ZM85.4 226.1H28.9V187.7H85.4V226.1ZM85.4 170.7H28.9V132.3H85.4V170.7ZM85.4 118.8H28.9V80.4H85.4V118.8ZM162.2 152.3C156.7 155.9 149.4 164.9 148.3 170.7C142.5 170.7 105.8 170.7 105.8 170.7V132.3H162.3C162.2 132.3 162.2 146.1 162.2 152.3ZM162.2 118.8H105.7V80.4H162.2V118.8ZM237.8 118.8H181.3V80.4H237.8V118.8Z" fill="white"/>
</svg>
